<svg xmlns="http://www.w3.org/2000/svg" viewBox="0 0 20 16.673">
  <defs>
    <style>
      .cls-1 {
        fill: #fff;
      }
    </style>
  </defs>
  <path id="Tracé_1218" data-name="Tracé 1218" class="cls-1" d="M19.065,9.44a2.853,2.853,0,1,0-3.431,4.494,3.377,3.377,0,0,1-2.4,1.262A3.463,3.463,0,0,1,9.852,13.46,3.416,3.416,0,0,1,9.619,11.1a7.442,7.442,0,0,1,1.305-2.694c.181-.25.38-.506.6-.762,1.745-2.07,1.351-3.822.96-4.681A5.779,5.779,0,0,0,7.359-.023a5.423,5.423,0,0,0-2.64.61,4.835,4.835,0,0,0-.656.426,2.85,2.85,0,1,0,1.084.981A3.89,3.89,0,0,1,7.33,1.409,4.346,4.346,0,0,1,11.163,3.56a2.924,2.924,0,0,1-.751,3.16c-.242.285-.463.572-.67.854a9.018,9.018,0,0,0-1.53,3.221,4.861,4.861,0,0,0,.359,3.327,4.883,4.883,0,0,0,4.351,2.528c.141,0,.285-.006.428-.017a4.838,4.838,0,0,0,3.776-2.323A2.852,2.852,0,0,0,19.065,9.44Z" transform="translate(0.1 0.024)"/>
</svg>
