<svg xmlns="http://www.w3.org/2000/svg" viewBox="0 0 30 30">
  <defs>
    <style>
      .cls-1, .cls-3 {
        fill: none;
      }

      .cls-1 {
        stroke: #000;
      }

      .cls-2 {
        stroke: none;
      }
    </style>
  </defs>
  <g id="Groupe_1451" data-name="Groupe 1451" transform="translate(-319 -743)">
    <g id="Ellipse_325" data-name="Ellipse 325" class="cls-1" transform="translate(319 743)">
      <circle class="cls-2" cx="15" cy="15" r="15"/>
      <circle class="cls-3" cx="15" cy="15" r="14.5"/>
    </g>
    <g id="Groupe_1449" data-name="Groupe 1449" transform="translate(301.474 509.019)">
      <path id="Tracé_1227" data-name="Tracé 1227" d="M493.485,240.476l-2.138,3.371a8.894,8.894,0,0,1,.851.343,3.943,3.943,0,0,1,.761.519l2.151-3.4a.914.914,0,0,0-1.624-.838Z" transform="translate(-451.685)"/>
      <path id="Tracé_1228" data-name="Tracé 1228" d="M25.233,377.366a14.187,14.187,0,0,0,3.634,2.326,18.924,18.924,0,0,0,4.582,1.424h.007a.615.615,0,0,0,.084.006h.02a7.649,7.649,0,0,0,5.825-2.489,11.518,11.518,0,0,0,2.294-7.837,3.263,3.263,0,0,0-.842-2.1c-.04-.041-.081-.082-.123-.121a3.014,3.014,0,0,0-.62-.431,3.747,3.747,0,0,0-.6-.253,1.993,1.993,0,0,0-.259-.064,2.025,2.025,0,0,0-.359-.032,3.86,3.86,0,0,0-2.373,1.12,20.287,20.287,0,0,1-2.1,1.721,9.267,9.267,0,0,1-2.676,1.091,22.967,22.967,0,0,1-3.731.71,30.406,30.406,0,0,1-3.384.2q-.673,0-1.344-.036l-.078,0-.043,0a.621.621,0,0,0-.587.823A9.443,9.443,0,0,0,25.233,377.366Zm-.87-3.494h.2a32.4,32.4,0,0,0,3.617-.2,18.467,18.467,0,0,0,7.354-2.192.336.336,0,0,1,.172-.047.339.339,0,0,1,.164.042,32.156,32.156,0,0,0,3.972,1.908.34.34,0,0,1,.223.359,7.586,7.586,0,0,1-1.62,4.09,6.418,6.418,0,0,1-4.81,2.048h-.02a.465.465,0,0,1-.081-.007c-.211-.037-.733-.138-1.432-.33.2-.088.406-.194.614-.311.187-.105.375-.22.561-.341.576-.372,1.135-.794,1.569-1.141a.11.11,0,0,0-.112-.187,15.036,15.036,0,0,1-3.248.84c-.341.055-.669.1-.973.139-.355.045-.676.079-.945.1l-.21-.094a14.7,14.7,0,0,1-1.689-.906,6.674,6.674,0,0,0,.709-.108c.22-.045.443-.1.662-.159a17.349,17.349,0,0,0,1.679-.56.074.074,0,0,0-.034-.142c-.764.074-1.824.08-2.729.067-.3,0-.576-.011-.824-.018-.325-.009-.594-.019-.772-.027-.1-.087-.206-.175-.3-.264q-.192-.173-.37-.353c.184-.019.375-.048.568-.085s.365-.076.547-.122a16.774,16.774,0,0,0,1.889-.615.074.074,0,0,0-.034-.142c-.717.069-1.7.079-2.561.069-.214,0-.42-.006-.615-.01-.216,0-.417-.01-.595-.016a8.014,8.014,0,0,1-.666-1.041A.167.167,0,0,1,24.363,373.872Z" transform="translate(0 -123.141)"/>
      <ellipse id="Ellipse_322" data-name="Ellipse 322" cx="1.467" cy="1.467" rx="1.467" ry="1.467" transform="translate(28.505 241.941)"/>
      <ellipse id="Ellipse_323" data-name="Ellipse 323" cx="0.741" cy="0.741" rx="0.741" ry="0.741" transform="translate(26.067 246.026)"/>
      <ellipse id="Ellipse_324" data-name="Ellipse 324" cx="0.741" cy="0.741" rx="0.741" ry="0.741" transform="translate(30.086 245.855)"/>
    </g>
  </g>
</svg>
