<svg id="down-arrow" xmlns="http://www.w3.org/2000/svg" viewBox="0 0 30 30">
  <g id="Groupe_1450" data-name="Groupe 1450">
    <path id="Tracé_1229" data-name="Tracé 1229" d="M30,15A15,15,0,1,0,15,30,15.017,15.017,0,0,0,30,15ZM1.5,15A13.5,13.5,0,1,1,15,28.5,13.516,13.516,0,0,1,1.5,15Z"/>
    <path id="Tracé_1230" data-name="Tracé 1230" d="M169.5,140.715l4.215-4.215a.748.748,0,0,0-1.058-1.058l-2.936,2.936V127.152a.752.752,0,1,0-1.5,0v11.219l-2.936-2.936a.748.748,0,0,0-1.058,1.058l4.215,4.215a.761.761,0,0,0,1.064.006Z" transform="translate(-153.967 -118.668)"/>
  </g>
</svg>
