<svg xmlns="http://www.w3.org/2000/svg" viewBox="0 0 24.116 18">
  <g id="Groupe_899" data-name="Groupe 899" transform="translate(263.116 485.922) rotate(180)">
    <path id="Tracé_956" data-name="Tracé 956" d="M11.643,9.269,2.156,1.734a1.5,1.5,0,0,0-1.448.059A1.453,1.453,0,0,0,0,3.038V18.114a1.454,1.454,0,0,0,.707,1.244,1.506,1.506,0,0,0,1.45.059l9.488-7.538c.457-.43.818-.752.818-1.306S12.155,9.722,11.643,9.269Z" transform="translate(239 466.347)"/>
    <path id="Tracé_957" data-name="Tracé 957" d="M19.644,9.269,10.156,1.734a1.5,1.5,0,0,0-1.45.059A1.453,1.453,0,0,0,8,3.038V18.114a1.454,1.454,0,0,0,.707,1.244,1.506,1.506,0,0,0,1.45.059l9.488-7.538c.457-.43.818-.752.818-1.306S20.155,9.722,19.644,9.269Z" transform="translate(242.654 466.347)"/>
  </g>
</svg>
