<svg xmlns="http://www.w3.org/2000/svg" viewBox="0 0 28 28">
  <defs>
    <style>
      .cls-1 {
        fill: #fff;
      }
    </style>
  </defs>
  <g id="Symbole_97_4" data-name="Symbole 97 – 4" transform="translate(-314 -326)">
    <path id="Tracé_1147" data-name="Tracé 1147" class="cls-1" d="M16.556-3.031V-5.857H13.8v2.826Zm0,11.239V-.2H13.8V8.209ZM5.284-8.716a13.484,13.484,0,0,1,9.892-4.108,13.484,13.484,0,0,1,9.892,4.108,13.484,13.484,0,0,1,4.108,9.892,13.484,13.484,0,0,1-4.108,9.892,13.484,13.484,0,0,1-9.892,4.108,13.484,13.484,0,0,1-9.892-4.108A13.484,13.484,0,0,1,1.176,1.176,13.484,13.484,0,0,1,5.284-8.716Z" transform="translate(312.824 338.824)"/>
  </g>
</svg>
