<svg xmlns="http://www.w3.org/2000/svg" viewBox="0 0 57.24 57.24"><defs><style>.cls-1{fill:none;stroke:#000;stroke-width:3.67px;}.cls-2{fill:#fff;}</style></defs><title>Fichier 3</title><g id="Calque_2" data-name="Calque 2"><g id="Calque_1-2" data-name="Calque 1"><circle class="cls-1" cx="28.62" cy="28.62" r="26.79" transform="translate(-8.77 13.13) rotate(-22.5)"/><path class="cls-2" d="M29.46,12.33H44.79V44.41H12.7V12.33H28.5a2.92,2.92,0,0,0-1.8,3.15c.06,4.31,0,8.62,0,12.92v1.26c-.27-.07-.32-.07-.34-.1-.74-.72-1.47-1.46-2.22-2.18-1.17-1.14-2.44-1.24-3.36-.3s-.88,2.19.28,3.36q3,3,6,6a2.22,2.22,0,0,0,3.55,0q3.06-3,6.09-6.09c1.13-1.15,1.17-2.42.18-3.36s-2.16-.78-3.27.32c-.78.77-1.52,1.58-2.27,2.38l-.29-.18V28.4c0-4.23-.05-8.46,0-12.68A3.36,3.36,0,0,0,29.46,12.33Zm8.87,27.48H19.44c0-1.61,0-3.16,0-4.7a2.17,2.17,0,1,0-4.31,0c0,2.23,0,4.46,0,6.69,0,1.66.79,2.39,2.45,2.4H40.28a2.08,2.08,0,0,0,2.38-2.34q0-3.34,0-6.7a2.19,2.19,0,0,0-2.19-2.45c-1.29,0-2.12,1-2.14,2.49S38.33,38.19,38.33,39.81Z"/><path d="M29.46,12.33a3.36,3.36,0,0,1,1.65,3.39c-.07,4.22,0,8.45,0,12.68v1.15l.29.18c.75-.8,1.49-1.61,2.27-2.38,1.11-1.1,2.34-1.2,3.27-.32s.95,2.21-.18,3.36q-3,3.06-6.09,6.09a2.22,2.22,0,0,1-3.55,0q-3-3-6-6c-1.16-1.17-1.24-2.38-.28-3.36s2.19-.84,3.36.3c.75.72,1.48,1.46,2.22,2.18,0,0,.07,0,.34.1V28.4c0-4.3,0-8.61,0-12.92a2.92,2.92,0,0,1,1.8-3.15Z"/><path d="M38.33,39.81c0-1.62,0-3.13,0-4.64s.85-2.48,2.14-2.49a2.19,2.19,0,0,1,2.19,2.45q0,3.36,0,6.7a2.08,2.08,0,0,1-2.38,2.34H17.56c-1.66,0-2.43-.74-2.45-2.4,0-2.23,0-4.46,0-6.69a2.17,2.17,0,1,1,4.31,0c0,1.54,0,3.09,0,4.7Z"/></g></g></svg>