<svg xmlns="http://www.w3.org/2000/svg" viewBox="0 0 28 25.239">
  <defs>
    <style>
      .cls-1 {
        fill: #fff;
      }
    </style>
  </defs>
  <g id="Symbole_96_4" data-name="Symbole 96 – 4" transform="translate(-314 -246)">
    <path id="Tracé_1146" data-name="Tracé 1146" class="cls-1" d="M10.213,6.138a6.769,6.769,0,0,0,4.962,2.07,6.769,6.769,0,0,0,4.962-2.07,6.769,6.769,0,0,0,2.07-4.962,6.769,6.769,0,0,0-2.07-4.962,6.769,6.769,0,0,0-4.962-2.07,6.769,6.769,0,0,0-4.962,2.07,6.769,6.769,0,0,0-2.07,4.962A6.769,6.769,0,0,0,10.213,6.138Zm.756-18.962h8.413l2.563,2.761h4.469a2.6,2.6,0,0,1,1.939.854,2.761,2.761,0,0,1,.822,1.972V9.589a2.761,2.761,0,0,1-.822,1.972,2.6,2.6,0,0,1-1.939.854H3.936A2.6,2.6,0,0,1,2,11.561a2.761,2.761,0,0,1-.822-1.972V-7.237A2.761,2.761,0,0,1,2-9.209a2.6,2.6,0,0,1,1.939-.854H8.406ZM12.021,4.331a4.3,4.3,0,0,1-1.315-3.155,4.3,4.3,0,0,1,1.315-3.155,4.443,4.443,0,0,1,6.31,0,4.3,4.3,0,0,1,1.315,3.155,4.3,4.3,0,0,1-1.315,3.155,4.443,4.443,0,0,1-6.31,0Z" transform="translate(312.824 258.824)"/>
  </g>
</svg>
