<svg xmlns="http://www.w3.org/2000/svg" viewBox="0 0 57.24 57.24"><defs><style>.cls-1{fill:none;stroke:#000;stroke-width:3.67px;}</style></defs><title>Fichier 2</title><g id="Calque_2" data-name="Calque 2"><g id="Calque_1-2" data-name="Calque 1"><circle class="cls-1" cx="28.62" cy="28.62" r="26.79" transform="translate(-7.45 10.25) rotate(-18.01)"/><path d="M34,43.48c-1-.24-2-.47-3-.72a25.46,25.46,0,0,1-13.5-8.13A2,2,0,0,1,17,33c.11-.36.91-.67,1.43-.72,3.68-.32,7.17-1.15,10-3.66a23.68,23.68,0,0,0,2-2.19l1.95,1c-2.63,4.54-7,6-11.61,7,1.62,2.55,2.92,2.84,6,1.41l-1.46,2c3.35,3,5.75.42,8.44-1.31l-2.36,4a26.7,26.7,0,0,0,3.19.51c.33,0,.83-.45,1-.82,1.33-2.67,2.6-5.36,3.88-8.05.17-.35.28-.72.45-1.16l2.22.74a38.28,38.28,0,0,1-6,11.75Z"/><path d="M42.82,29.53,31.43,24.48a3.43,3.43,0,0,1,4.39-2.07A50.18,50.18,0,0,1,41.56,25,3.4,3.4,0,0,1,42.82,29.53Z"/><path d="M41.18,22.75l-3.65-1.54c.6-1.14,1.15-2.21,1.72-3.28,1-1.79,1.93-3.57,2.87-5.36.49-.93,1.17-.74,1.92-.4a1.16,1.16,0,0,1,.58,1.67c-.89,2.41-1.83,4.8-2.76,7.2C41.66,21.56,41.45,22.07,41.18,22.75Z"/><path d="M16.7,25.85a3,3,0,0,1,3-3.09,3.18,3.18,0,0,1,3,3,3.06,3.06,0,0,1-3.05,3.05A3,3,0,0,1,16.7,25.85Z"/><path d="M19.15,18.55a1.3,1.3,0,0,1,1.28-1.32,1.37,1.37,0,0,1,1.28,1.29,1.3,1.3,0,0,1-1.3,1.3A1.26,1.26,0,0,1,19.15,18.55Z"/><path d="M13.15,18.09a1.77,1.77,0,0,1,1.74-1.79,1.84,1.84,0,0,1,1.74,1.75,1.77,1.77,0,0,1-1.76,1.77A1.71,1.71,0,0,1,13.15,18.09Z"/></g></g></svg>