<svg xmlns="http://www.w3.org/2000/svg" viewBox="0 0 22 22.52">
  <defs>
    <style>
      .cls-1 {
        fill: #fff;
      }
    </style>
  </defs>
  <g id="Symbole_95_4" data-name="Symbole 95 – 4" transform="translate(-317 -85)">
    <path id="Tracé_1150" data-name="Tracé 1150" class="cls-1" d="M2.915,2.153a3.819,3.819,0,0,0,2.8,1.163,3.819,3.819,0,0,0,2.8-1.163,3.819,3.819,0,0,0,1.163-2.8,3.819,3.819,0,0,0-1.163-2.8,3.819,3.819,0,0,0-2.8-1.163,3.819,3.819,0,0,0-2.8,1.163,3.819,3.819,0,0,0-1.163,2.8A3.819,3.819,0,0,0,2.915,2.153ZM14.122.462,16.5,2.312q.37.264.106.74L14.333,6.964a.515.515,0,0,1-.687.211l-2.8-1.11a9.565,9.565,0,0,1-1.9,1.11l-.423,2.96a.517.517,0,0,1-.529.476H3.444a.517.517,0,0,1-.529-.476l-.423-2.96a8.654,8.654,0,0,1-1.9-1.11l-2.8,1.11A.515.515,0,0,1-2.9,6.964L-5.173,3.052q-.264-.476.106-.74L-2.689.462a8.542,8.542,0,0,1-.053-1.11,8.542,8.542,0,0,1,.053-1.11l-2.379-1.85q-.37-.264-.106-.74L-2.9-8.261a.515.515,0,0,1,.687-.211l2.8,1.11a9.565,9.565,0,0,1,1.9-1.11l.423-2.96a.517.517,0,0,1,.529-.476H7.99a.517.517,0,0,1,.529.476l.423,2.96a8.654,8.654,0,0,1,1.9,1.11l2.8-1.11a.515.515,0,0,1,.687.211l2.273,3.912q.264.476-.106.74l-2.379,1.85a8.542,8.542,0,0,1,.053,1.11A8.542,8.542,0,0,1,14.122.462Z" transform="translate(322.283 96.908)"/>
  </g>
</svg>
