<svg xmlns="http://www.w3.org/2000/svg" viewBox="0 0 231.442 12.561">
  <g id="Groupe_1306" data-name="Groupe 1306" transform="translate(-325 -590)">
    <g id="Groupe_1204" data-name="Groupe 1204" transform="translate(325 590)">
      <path id="Tracé_1117" data-name="Tracé 1117" d="M1608.1,155.332,1602.36,142.9V152h-.16Z" transform="translate(-1595.503 -142.868)"/>
      <path id="Tracé_1118" data-name="Tracé 1118" d="M1587.2,151.932V142.8c-1.474,3.076-5.9,12.3-5.9,12.465l6.056-3.332Z" transform="translate(-1581.3 -142.8)"/>
    </g>
    <g id="Groupe_1203" data-name="Groupe 1203" transform="translate(354.639 590.032)">
      <path id="Tracé_1102" data-name="Tracé 1102" d="M1675.883,154.98a5.529,5.529,0,0,1-2.083-1.057l.769-1.762a6.121,6.121,0,0,0,1.826.961,6.511,6.511,0,0,0,2.179.385,3.768,3.768,0,0,0,2.019-.449,1.317,1.317,0,0,0,.673-1.154,1.1,1.1,0,0,0-.385-.865,2.394,2.394,0,0,0-.929-.513c-.385-.128-.9-.256-1.57-.417a17.849,17.849,0,0,1-2.243-.673,3.948,3.948,0,0,1-1.474-1.025,2.739,2.739,0,0,1-.609-1.891,3.3,3.3,0,0,1,.544-1.826,3.592,3.592,0,0,1,1.634-1.314,6.738,6.738,0,0,1,2.692-.481,8.3,8.3,0,0,1,2.179.288,6.148,6.148,0,0,1,1.858.8l-.7,1.762a6.846,6.846,0,0,0-1.666-.7,6.2,6.2,0,0,0-1.666-.256,3.643,3.643,0,0,0-1.987.449,1.408,1.408,0,0,0-.641,1.186.991.991,0,0,0,.385.833,2.9,2.9,0,0,0,.929.513c.385.128.9.256,1.57.417a14.605,14.605,0,0,1,2.211.641,3.949,3.949,0,0,1,1.474,1.025,2.655,2.655,0,0,1,.609,1.858,3.3,3.3,0,0,1-.545,1.826,3.638,3.638,0,0,1-1.666,1.282,6.74,6.74,0,0,1-2.691.481A6.424,6.424,0,0,1,1675.883,154.98Z" transform="translate(-1673.8 -142.9)"/>
      <path id="Tracé_1103" data-name="Tracé 1103" d="M1716.94,154.731a5.9,5.9,0,0,1-2.307-2.211,6.581,6.581,0,0,1,0-6.409,5.755,5.755,0,0,1,2.339-2.211,6.71,6.71,0,0,1,3.3-.8,6.875,6.875,0,0,1,2.724.513,5.449,5.449,0,0,1,2.083,1.506l-1.442,1.378a4.16,4.16,0,0,0-3.236-1.41,4.738,4.738,0,0,0-2.243.545,3.67,3.67,0,0,0-1.538,1.506,4.2,4.2,0,0,0-.545,2.211,4.61,4.61,0,0,0,.545,2.211,4.079,4.079,0,0,0,1.538,1.506,4.738,4.738,0,0,0,2.243.545,4.189,4.189,0,0,0,3.236-1.442l1.442,1.378a5.449,5.449,0,0,1-2.083,1.506,6.876,6.876,0,0,1-2.724.513A7.537,7.537,0,0,1,1716.94,154.731Z" transform="translate(-1700.983 -143.036)"/>
      <path id="Tracé_1104" data-name="Tracé 1104" d="M1761.1,143.5h2.242v12.112H1761.1Z" transform="translate(-1733.127 -143.308)"/>
      <path id="Tracé_1105" data-name="Tracé 1105" d="M1792.868,153.722v1.891H1783.8V143.5h8.844v1.891h-6.6v3.14h5.864v1.858h-5.864v3.332Z" transform="translate(-1748.553 -143.308)"/>
      <path id="Tracé_1106" data-name="Tracé 1106" d="M1836.066,143.5v12.112h-1.858l-6.665-8.2v8.2H1825.3V143.5h1.858l6.665,8.2v-8.2Z" transform="translate(-1776.756 -143.308)"/>
      <path id="Tracé_1107" data-name="Tracé 1107" d="M1874.94,154.731a5.9,5.9,0,0,1-2.307-2.211,6.581,6.581,0,0,1,0-6.409,5.757,5.757,0,0,1,2.339-2.211,6.71,6.71,0,0,1,3.3-.8,6.874,6.874,0,0,1,2.723.513,5.45,5.45,0,0,1,2.083,1.506l-1.442,1.378a4.16,4.16,0,0,0-3.236-1.41,4.74,4.74,0,0,0-2.243.545,3.672,3.672,0,0,0-1.538,1.506,4.2,4.2,0,0,0-.545,2.211,4.609,4.609,0,0,0,.545,2.211,4.081,4.081,0,0,0,1.538,1.506,4.74,4.74,0,0,0,2.243.545,4.189,4.189,0,0,0,3.236-1.442l1.442,1.378a5.45,5.45,0,0,1-2.083,1.506,6.874,6.874,0,0,1-2.723.513A7.539,7.539,0,0,1,1874.94,154.731Z" transform="translate(-1808.356 -143.036)"/>
      <path id="Tracé_1108" data-name="Tracé 1108" d="M1928.168,153.722v1.891H1919.1V143.5h8.844v1.891h-6.6v3.14h5.864v1.858h-5.864v3.332Z" transform="translate(-1840.5 -143.308)"/>
      <path id="Tracé_1109" data-name="Tracé 1109" d="M1979.805,145.491H1975.8V143.6h10.286v1.891h-4.005v10.222h-2.243V145.491Z" transform="translate(-1879.032 -143.376)"/>
      <path id="Tracé_1110" data-name="Tracé 1110" d="M2026.515,155.612l-2.467-3.557c-.1,0-.257.032-.481.032h-2.724v3.525H2018.6V143.5h5a6.714,6.714,0,0,1,2.755.513,3.828,3.828,0,0,1,2.4,3.781,4.022,4.022,0,0,1-.673,2.339,3.9,3.9,0,0,1-1.922,1.474l2.788,3.973h-2.435Zm-.8-9.581a3.467,3.467,0,0,0-2.243-.609h-2.627v4.838h2.627a3.465,3.465,0,0,0,2.243-.641,2.192,2.192,0,0,0,.769-1.794A2.291,2.291,0,0,0,2025.714,146.031Z" transform="translate(-1908.118 -143.308)"/>
      <path id="Tracé_1111" data-name="Tracé 1111" d="M2063.972,154.6a6.013,6.013,0,0,1-3.172-5.447,6.366,6.366,0,0,1,.834-3.2,6.057,6.057,0,0,1,2.339-2.243,6.836,6.836,0,0,1,3.333-.8,6.748,6.748,0,0,1,3.333.8,6.214,6.214,0,0,1,2.339,2.211,6.061,6.061,0,0,1,.833,3.2,6.373,6.373,0,0,1-.833,3.2,5.758,5.758,0,0,1-2.339,2.211,6.834,6.834,0,0,1-3.333.8A6.463,6.463,0,0,1,2063.972,154.6Zm5.512-1.73a3.938,3.938,0,0,0,1.538-1.538,4.155,4.155,0,0,0,.545-2.179,4.487,4.487,0,0,0-.545-2.179,4.162,4.162,0,0,0-1.538-1.538,4.63,4.63,0,0,0-4.358,0,3.945,3.945,0,0,0-1.539,1.538,4.16,4.16,0,0,0-.544,2.179,4.486,4.486,0,0,0,.544,2.179,4.169,4.169,0,0,0,1.539,1.538,4.482,4.482,0,0,0,2.178.545A4.158,4.158,0,0,0,2069.484,152.865Z" transform="translate(-1936.796 -142.9)"/>
      <path id="Tracé_1112" data-name="Tracé 1112" d="M2112.905,145.491H2108.9V143.6h10.286v1.891h-4.005v10.222h-2.243V145.491Z" transform="translate(-1969.484 -143.376)"/>
      <path id="Tracé_1113" data-name="Tracé 1113" d="M2151.405,145.491H2147.4V143.6h10.286v1.891h-4.005v10.222h-2.244V145.491Z" transform="translate(-1995.648 -143.376)"/>
      <path id="Tracé_1114" data-name="Tracé 1114" d="M2199.268,153.722v1.891H2190.2V143.5h8.844v1.891h-6.6v3.14h5.864v1.858h-5.864v3.332Z" transform="translate(-2024.734 -143.308)"/>
      <path id="Tracé_1115" data-name="Tracé 1115" d="M2239.614,155.612l-2.467-3.557c-.1,0-.257.032-.481.032h-2.724v3.525H2231.7V143.5h5a6.713,6.713,0,0,1,2.756.513,3.827,3.827,0,0,1,2.4,3.781,4.025,4.025,0,0,1-.673,2.339,3.9,3.9,0,0,1-1.923,1.474l2.788,3.973h-2.435Zm-.8-9.581a3.468,3.468,0,0,0-2.243-.609h-2.628v4.838h2.628a3.466,3.466,0,0,0,2.243-.641,2.478,2.478,0,0,0,0-3.589Z" transform="translate(-2052.936 -143.308)"/>
      <path id="Tracé_1116" data-name="Tracé 1116" d="M2275.483,154.98a5.532,5.532,0,0,1-2.083-1.057l.769-1.762a6.13,6.13,0,0,0,1.826.961,6.512,6.512,0,0,0,2.179.385,3.765,3.765,0,0,0,2.018-.449,1.316,1.316,0,0,0,.673-1.154,1.1,1.1,0,0,0-.384-.865,2.4,2.4,0,0,0-.929-.513c-.385-.128-.9-.256-1.57-.417a17.885,17.885,0,0,1-2.243-.673,3.951,3.951,0,0,1-1.473-1.025,2.737,2.737,0,0,1-.609-1.891,3.3,3.3,0,0,1,.545-1.826,3.59,3.59,0,0,1,1.634-1.314,6.741,6.741,0,0,1,2.691-.481,8.305,8.305,0,0,1,2.179.288,6.14,6.14,0,0,1,1.858.8l-.705,1.762a6.843,6.843,0,0,0-1.666-.7,6.2,6.2,0,0,0-1.667-.256,3.643,3.643,0,0,0-1.986.449,1.337,1.337,0,0,0-.641,1.186.99.99,0,0,0,.385.833,2.9,2.9,0,0,0,.929.513c.385.128.9.256,1.57.417a14.572,14.572,0,0,1,2.21.641,3.946,3.946,0,0,1,1.474,1.025,2.654,2.654,0,0,1,.609,1.858,3.3,3.3,0,0,1-.545,1.826,3.637,3.637,0,0,1-1.666,1.282,6.738,6.738,0,0,1-2.691.481A6.362,6.362,0,0,1,2275.483,154.98Z" transform="translate(-2081.274 -142.9)"/>
    </g>
  </g>
</svg>
