<svg xmlns="http://www.w3.org/2000/svg" viewBox="0 0 30 30">
  <g id="Groupe_1481" data-name="Groupe 1481" transform="translate(-68 -348)">
    <path id="Tracé_1240" data-name="Tracé 1240" d="M15,0A15,15,0,1,0,30,15,15.017,15.017,0,0,0,15,0Zm0,29A14,14,0,1,1,29,15,14.016,14.016,0,0,1,15,29Z" transform="translate(68 348)"/>
    <path id="Tracé_1241" data-name="Tracé 1241" d="M2.426-12.261a2.465,2.465,0,0,1,2.736-2.608c1.585,0,2.634.716,2.634,2.2,0,3.094-3.554,3.119-3.554,7.236h2.25c0-3.452,4.04-3.631,4.04-7.67,0-2.787-2.045-4.27-5.114-4.27-3.17,0-5.19,1.841-5.293,5.088ZM5.341-2.75A1.586,1.586,0,0,0,3.73-1.088,1.615,1.615,0,0,0,5.341.625,1.615,1.615,0,0,0,6.952-1.088,1.586,1.586,0,0,0,5.341-2.75Z" transform="translate(78 372)"/>
  </g>
</svg>
