<svg xmlns="http://www.w3.org/2000/svg" viewBox="0 0 27.197 23">
  <defs>
    <style>
      .cls-1 {
        opacity: 0.5;
      }
    </style>
  </defs>
  <g id="Groupe_1518" data-name="Groupe 1518" class="cls-1" transform="translate(-43 -626)">
    <path id="Tracé_1253" data-name="Tracé 1253" d="M32.448,0H8.527A.415.415,0,0,0,8.1.451V20.279a.415.415,0,0,0,.427.451H32.448a.415.415,0,0,0,.427-.451V.451A.415.415,0,0,0,32.448,0Zm-.427,19.828H8.954V.9H32.021Z" transform="translate(37.322 626)"/>
    <path id="Tracé_1256" data-name="Tracé 1256" d="M.427,9.9A.415.415,0,0,0,0,10.351V30.179a.415.415,0,0,0,.427.451H24.348a.451.451,0,0,0,0-.9H.854V10.351A.435.435,0,0,0,.427,9.9Z" transform="translate(43 618.371)"/>
  </g>
</svg>
