<svg xmlns="http://www.w3.org/2000/svg" viewBox="0 0 19.056 28">
  <path id="Tracé_1252" data-name="Tracé 1252" d="M91.723,0A2.823,2.823,0,0,0,88.9,2.819V6.128A2.816,2.816,0,0,0,84.621,7.4a2.816,2.816,0,0,0-4.472,1.118,2.817,2.817,0,0,0-4.661,2.132v7.826a9.528,9.528,0,0,0,19.056,0V2.819A2.823,2.823,0,0,0,91.723,0ZM85.6,9.528V8.41a1.653,1.653,0,1,1,3.306,0v1.653H85.6Zm-4.472,1.118V9.528a1.653,1.653,0,1,1,3.306,0v.535H83.338a1.7,1.7,0,0,0-1.7,1.7,3.925,3.925,0,0,0,1.143,2.771h0a1.655,1.655,0,0,1-1.653-1.653Zm-4.472,2.236V10.646a1.653,1.653,0,1,1,3.306,0V14a1.653,1.653,0,1,1-3.306,0Zm16.722,5.59a8.361,8.361,0,0,1-16.722,0v-2.19a2.816,2.816,0,0,0,4.283-1.268,2.808,2.808,0,0,0,3.116.382,3.916,3.916,0,0,0,1.521.306h.305a6.169,6.169,0,0,0-2.566,5.007v1.118a.583.583,0,0,0,1.167,0V20.708A5.013,5.013,0,0,1,89.487,15.7a.583.583,0,0,0,0-1.167H85.574a2.753,2.753,0,0,1-1.226-.287.586.586,0,0,0-.106-.055A2.773,2.773,0,0,1,82.8,11.764a.535.535,0,0,1,.535-.535h8.385a1.655,1.655,0,0,1,1.653,1.653v5.59Zm0-7.872a2.8,2.8,0,0,0-1.653-.537H90.07V2.819a1.653,1.653,0,0,1,3.306,0Z" transform="translate(-75.487)"/>
</svg>
