<svg xmlns="http://www.w3.org/2000/svg" viewBox="0 0 32.058 23">
  <defs>
    <style>
      .cls-1 {
        opacity: 0.5;
      }
    </style>
  </defs>
  <g id="Groupe_1478" data-name="Groupe 1478" class="cls-1" transform="translate(0 0)">
    <path id="Tracé_1237" data-name="Tracé 1237" d="M31.436,60.217H29.323V59.5a.621.621,0,0,0-.447-.621A17.5,17.5,0,0,0,24.4,58.3a11.556,11.556,0,0,0-8.376,3.107A11.434,11.434,0,0,0,7.643,58.3a17.5,17.5,0,0,0-4.48.572.621.621,0,0,0-.447.621v.715H.621A.621.621,0,0,0,0,60.832V80.679a.62.62,0,0,0,.926.541,21.908,21.908,0,0,1,14.951-1.243h.149a.622.622,0,0,0,.149,0c8.7-2.206,14.913,1.187,14.951,1.243a.621.621,0,0,0,.932-.534V60.839A.621.621,0,0,0,31.436,60.217ZM1.243,79.691V61.46H2.728V77.044a.621.621,0,0,0,.715.621,27.192,27.192,0,0,1,3.884-.311,16.118,16.118,0,0,1,5.307.8A22.844,22.844,0,0,0,1.243,79.691Zm6.083-3.573a27.339,27.339,0,0,0-3.38.217V59.987a17.138,17.138,0,0,1,3.685-.41,10.145,10.145,0,0,1,7.755,3.045L15.4,78.1C14.112,77.256,11.589,76.118,7.326,76.118Zm9.321-13.5A10.238,10.238,0,0,1,24.4,59.577a17.213,17.213,0,0,1,3.685.41V76.336a27.332,27.332,0,0,0-3.362-.224,14.646,14.646,0,0,0-8.078,1.982ZM30.808,79.691a22.848,22.848,0,0,0-11.415-1.535,16.157,16.157,0,0,1,5.331-.8,27.185,27.185,0,0,1,3.909.3.621.621,0,0,0,.715-.621V61.46h1.485Z" transform="translate(0 -58.303)"/>
  </g>
</svg>
