<svg xmlns="http://www.w3.org/2000/svg" viewBox="0 0 28 28">
  <g id="horloge" transform="translate(-16 -460)">
    <path id="Tracé_1242" data-name="Tracé 1242" d="M14,0A14,14,0,1,0,28,14,14.016,14.016,0,0,0,14,0Zm0,27.067A13.067,13.067,0,1,1,27.067,14,13.082,13.082,0,0,1,14,27.067Z" transform="translate(16 460)"/>
    <path id="Tracé_1243" data-name="Tracé 1243" d="M24.067,20.079V15.346a.467.467,0,1,0-.933,0v4.733A1.864,1.864,0,0,0,21.8,21.412H18.467a.467.467,0,0,0,0,.933H21.8a1.863,1.863,0,1,0,2.267-2.267ZM23.6,22.812a.933.933,0,1,1,.933-.933A.934.934,0,0,1,23.6,22.812Z" transform="translate(6.4 452.064)"/>
    <path id="Tracé_1244" data-name="Tracé 1244" d="M29.467,8.279a.467.467,0,0,0,.467-.467V7.346a.467.467,0,0,0-.933,0v.467A.467.467,0,0,0,29.467,8.279Z" transform="translate(0.533 456.331)"/>
    <path id="Tracé_1245" data-name="Tracé 1245" d="M29.467,49.879a.467.467,0,0,0-.467.467v.467a.467.467,0,0,0,.933,0v-.467A.467.467,0,0,0,29.467,49.879Z" transform="translate(0.533 433.398)"/>
    <path id="Tracé_1246" data-name="Tracé 1246" d="M50.933,28.879h-.467a.467.467,0,1,0,0,.933h.467a.467.467,0,1,0,0-.933Z" transform="translate(-10.667 444.598)"/>
    <path id="Tracé_1247" data-name="Tracé 1247" d="M7.933,28.879H7.467a.467.467,0,1,0,0,.933h.467a.467.467,0,1,0,0-.933Z" transform="translate(12.267 444.598)"/>
    <path id="Tracé_1248" data-name="Tracé 1248" d="M44.316,13.459l-.33.33a.467.467,0,1,0,.66.66l.33-.33a.467.467,0,0,0-.66-.66Z" transform="translate(-7.386 452.895)"/>
    <path id="Tracé_1249" data-name="Tracé 1249" d="M13.911,43.865l-.33.33a.467.467,0,1,0,.66.66l.33-.33a.467.467,0,0,0-.66-.66Z" transform="translate(8.83 436.678)"/>
    <path id="Tracé_1250" data-name="Tracé 1250" d="M44.645,43.865a.467.467,0,1,0-.66.66l.33.33a.467.467,0,1,0,.66-.66Z" transform="translate(-7.386 436.679)"/>
    <path id="Tracé_1251" data-name="Tracé 1251" d="M14.24,13.459a.467.467,0,1,0-.66.66l.33.33a.467.467,0,1,0,.66-.66Z" transform="translate(8.83 452.895)"/>
  </g>
</svg>
