<svg xmlns="http://www.w3.org/2000/svg" viewBox="0 0 27.197 23">
  <defs>
    <style>
      .cls-1 {
        opacity: 0.5;
      }
    </style>
  </defs>
  <g id="Groupe_1517" data-name="Groupe 1517" class="cls-1" transform="translate(-174 -626)">
    <g id="Groupe_1492" data-name="Groupe 1492" transform="translate(176.422 626)">
      <path id="Tracé_1253" data-name="Tracé 1253" d="M32.448,0H8.527A.415.415,0,0,0,8.1.451V20.279a.415.415,0,0,0,.427.451H32.448a.415.415,0,0,0,.427-.451V.451A.415.415,0,0,0,32.448,0Zm-.427,19.828H8.954V.9H32.021Z" transform="translate(-8.1 0)"/>
      <path id="Tracé_1254" data-name="Tracé 1254" d="M20.892,15.947a2.456,2.456,0,0,0,2.392-2.524,2.4,2.4,0,1,0-4.784,0A2.456,2.456,0,0,0,20.892,15.947Zm0-4.1a1.625,1.625,0,1,1-1.538,1.622A1.575,1.575,0,0,1,20.892,11.846Z" transform="translate(-14.058 -5.988)"/>
      <path id="Tracé_1255" data-name="Tracé 1255" d="M14.553,27.31a.761.761,0,0,0,.3-.09l6.963-6.489,4.4,4.642a.4.4,0,0,0,.6,0,.452.452,0,0,0,0-.631l-2.05-2.163,3.93-4.551,4.827,4.642a.4.4,0,0,0,.6-.045.455.455,0,0,0-.043-.631l-5.126-4.957a.45.45,0,0,0-.3-.135.379.379,0,0,0-.3.135l-4.186,4.822-2.008-2.118a.4.4,0,0,0-.6,0L14.3,26.5a.455.455,0,0,0-.043.631A.319.319,0,0,0,14.553,27.31Z" transform="translate(-11.563 -9.284)"/>
    </g>
    <g id="Groupe_1493" data-name="Groupe 1493" transform="translate(174 628.271)">
      <path id="Tracé_1256" data-name="Tracé 1256" d="M.427,9.9A.415.415,0,0,0,0,10.351V30.179a.415.415,0,0,0,.427.451H24.348a.451.451,0,0,0,0-.9H.854V10.351A.435.435,0,0,0,.427,9.9Z" transform="translate(0 -9.9)"/>
    </g>
  </g>
</svg>
