<svg id="navigation" xmlns="http://www.w3.org/2000/svg" viewBox="0 0 30 30">
  <path id="Tracé_1239" data-name="Tracé 1239" d="M26.222,13.045,8.342,21.251a.5.5,0,0,0,.126.947l7.917,1.327.9,7.475a.5.5,0,0,0,.412.433.487.487,0,0,0,.084.007.5.5,0,0,0,.448-.278l8.646-17.441a.5.5,0,0,0-.656-.676ZM18.08,29.219l-.748-6.184a.5.5,0,0,0-.414-.433l-6.681-1.119,15.118-6.939Z" transform="translate(-4.025 -6.5)"/>
  <path id="Tracé_1240" data-name="Tracé 1240" d="M15,0A15,15,0,1,0,30,15,15.017,15.017,0,0,0,15,0Zm0,29A14,14,0,1,1,29,15,14.016,14.016,0,0,1,15,29Z"/>
</svg>
