<?xml version="1.0" encoding="iso-8859-1"?>
<!-- Generator: Adobe Illustrator 19.0.0, SVG Export Plug-In . SVG Version: 6.00 Build 0)  -->
<svg version="1.1" id="Layer_1" xmlns="http://www.w3.org/2000/svg" xmlns:xlink="http://www.w3.org/1999/xlink" x="0px" y="0px"
	 viewBox="0 0 503.467 503.467" style="enable-background:new 0 0 503.467 503.467;" xml:space="preserve">
<g transform="translate(5 11)">
	<g>
		<path style="fill:#F2EDDA;" d="M443,155.4v102.4H306.467c0-33.28-26.453-59.733-59.733-59.733S187,224.52,187,257.8H50.467V155.4
			H443z M144.333,35.933H212.6h68.267h68.267H417.4H443V104.2H50.467V35.933h25.6H144.333z M306.467,445.533H443V257.8H306.467
			V445.533z M50.467,104.2H443h17.067v34.133L443,155.4H50.467L33.4,138.333V104.2H50.467z"/>
		<polygon style="fill:#F2EDDA;" points="50.467,445.533 187,445.533 187,257.8 50.467,257.8 		"/>
	</g>
	<path style="fill:#FFD0A1;" d="M340.6,394.333h68.267V309H340.6V394.333z M340.6,223.667h68.267v-34.133H340.6V223.667z
		 M84.6,394.333h68.267V309H84.6V394.333z M84.6,223.667h68.267v-34.133H84.6V223.667z"/>
</g>
<path style="fill:#51565F;" d="M499.2,460.8H4.267c-2.56,0-4.267-1.707-4.267-4.267s1.707-4.267,4.267-4.267H51.2v-179.2H38.4
	c-2.56,0-4.267-1.707-4.267-4.267s1.707-4.267,4.267-4.267h149.333c2.56-33.28,29.867-59.733,64-59.733s61.44,26.453,64,59.733
	h149.333c2.56,0,4.267,1.707,4.267,4.267s-1.707,4.267-4.267,4.267h-12.8v179.2H499.2c2.56,0,4.267,1.707,4.267,4.267
	S501.76,460.8,499.2,460.8z M315.733,452.267h128v-179.2h-128V452.267z M196.267,452.267H307.2v-179.2h-12.8
	c-2.56,0-4.267-1.707-4.267-4.267s1.707-4.267,4.267-4.267h12.8c-2.56-29.013-26.453-51.2-55.467-51.2s-52.907,22.187-55.467,51.2
	h12.8c2.56,0,4.267,1.707,4.267,4.267s-1.707,4.267-4.267,4.267h-12.8V452.267z M59.733,452.267h128v-179.2h-128V452.267z
	 M413.867,409.6H345.6c-2.56,0-4.267-1.707-4.267-4.267V320c0-2.56,1.707-4.267,4.267-4.267h68.267c2.56,0,4.267,1.707,4.267,4.267
	v85.333C418.133,407.893,416.427,409.6,413.867,409.6z M349.867,401.067H409.6v-76.8h-59.733V401.067z M157.867,409.6H89.6
	c-2.56,0-4.267-1.707-4.267-4.267V320c0-2.56,1.707-4.267,4.267-4.267h68.267c2.56,0,4.267,1.707,4.267,4.267v85.333
	C162.133,407.893,160.427,409.6,157.867,409.6z M93.867,401.067H153.6v-76.8H93.867V401.067z M448,247.467
	c-2.56,0-4.267-1.707-4.267-4.267v-72.533h-384V243.2c0,2.56-1.707,4.267-4.267,4.267c-2.56,0-4.267-1.707-4.267-4.267v-75.093
	l-16.213-16.213c-0.853-0.853-0.853-1.707-0.853-3.413v-34.133c0-2.56,1.707-4.267,4.267-4.267h426.667
	c2.56,0,4.267,1.707,4.267,4.267v34.133c0,0.853-0.853,2.56-0.853,3.413l-16.213,16.213V243.2
	C452.267,245.76,450.56,247.467,448,247.467z M57.173,162.133h389.12l14.507-14.507v-28.16H42.667v28.16L57.173,162.133z
	 M413.867,238.933H345.6c-2.56,0-4.267-1.707-4.267-4.267v-34.133c0-2.56,1.707-4.267,4.267-4.267h68.267
	c2.56,0,4.267,1.707,4.267,4.267v34.133C418.133,237.227,416.427,238.933,413.867,238.933z M349.867,230.4H409.6v-25.6h-59.733
	V230.4z M157.867,238.933H89.6c-2.56,0-4.267-1.707-4.267-4.267v-34.133c0-2.56,1.707-4.267,4.267-4.267h68.267
	c2.56,0,4.267,1.707,4.267,4.267v34.133C162.133,237.227,160.427,238.933,157.867,238.933z M93.867,230.4H153.6v-25.6H93.867V230.4z
	 M448,93.867c-2.56,0-4.267-1.707-4.267-4.267V51.2h-17.067v29.867c0,2.56-1.707,4.267-4.267,4.267s-4.267-1.707-4.267-4.267V51.2
	H358.4v29.867c0,2.56-1.707,4.267-4.267,4.267s-4.267-1.707-4.267-4.267V51.2h-59.733v29.867c0,2.56-1.707,4.267-4.267,4.267
	s-4.267-1.707-4.267-4.267V51.2h-59.733v29.867c0,2.56-1.707,4.267-4.267,4.267s-4.267-1.707-4.267-4.267V51.2H153.6v29.867
	c0,2.56-1.707,4.267-4.267,4.267s-4.267-1.707-4.267-4.267V51.2H85.333v29.867c0,2.56-1.707,4.267-4.267,4.267
	c-2.56,0-4.267-1.707-4.267-4.267V51.2H59.733v38.4c0,2.56-1.707,4.267-4.267,4.267c-2.56,0-4.267-1.707-4.267-4.267V51.2H38.4
	c-2.56,0-4.267-1.707-4.267-4.267c0-2.56,1.707-4.267,4.267-4.267h426.667c2.56,0,4.267,1.707,4.267,4.267
	c0,2.56-1.707,4.267-4.267,4.267h-12.8v38.4C452.267,92.16,450.56,93.867,448,93.867z"/>
<g>
</g>
<g>
</g>
<g>
</g>
<g>
</g>
<g>
</g>
<g>
</g>
<g>
</g>
<g>
</g>
<g>
</g>
<g>
</g>
<g>
</g>
<g>
</g>
<g>
</g>
<g>
</g>
<g>
</g>
</svg>
