<svg xmlns="http://www.w3.org/2000/svg" viewBox="0 0 16 16">
  <defs>
    <style>
      .cls-1 {
        fill: #2699fb;
      }

      .cls-2, .cls-3 {
        stroke: none;
      }

      .cls-3 {
        fill: #fff;
      }
    </style>
  </defs>
  <g id="Tracé_553" data-name="Tracé 553" class="cls-1" transform="translate(0)">
    <path class="cls-2" d="M 8 14.5 C 4.415890216827393 14.5 1.5 11.58411026000977 1.5 8 C 1.5 4.415890216827393 4.415890216827393 1.5 8 1.5 C 11.58411026000977 1.5 14.5 4.415890216827393 14.5 8 C 14.5 11.58411026000977 11.58411026000977 14.5 8 14.5 Z"/>
    <path class="cls-3" d="M 8 13 C 10.7570104598999 13 13 10.7570104598999 13 8 C 13 5.242990016937256 10.7570104598999 3 8 3 C 5.242990016937256 3 3 5.242990016937256 3 8 C 3 10.7570104598999 5.242990016937256 13 8 13 M 8 16 C 3.581720113754272 16 0 12.41827964782715 0 8 C 0 3.581720113754272 3.581720113754272 0 8 0 C 12.41827964782715 0 16 3.581720113754272 16 8 C 16 12.41827964782715 12.41827964782715 16 8 16 Z"/>
  </g>
</svg>
