<svg xmlns="http://www.w3.org/2000/svg" viewBox="0 0 13.201 18.802">
  <defs>
    <style>
      .cls-1 {
        fill: #fff;
        stroke-linecap: round;
        stroke-linejoin: round;
        stroke-miterlimit: 10;
      }

      .cls-2, .cls-3 {
        stroke: none;
      }
    </style>
  </defs>
  <g id="Tracé_779" data-name="Tracé 779" class="cls-1" transform="translate(-10 -13)">
    <path class="cls-2" d="M 20.92825126647949 31.30163955688477 C 20.42099189758301 31.30163955688477 19.94303321838379 31.07957649230957 19.61149978637695 30.71015739440918 L 19.43625068664551 30.79806900024414 L 19.28987503051758 30.2012825012207 C 19.23214912414551 30.05960464477539 19.19328308105469 29.90372085571289 19.1740550994873 29.7366828918457 L 18.24752044677734 26.01694297790527 L 15.84698104858398 23.82693290710449 C 15.51172637939453 23.63337898254395 15.22623157501221 23.3714427947998 15.01605796813965 23.06449508666992 L 14.92971134185791 22.97786903381348 L 14.92039108276367 22.9116382598877 C 14.69285297393799 22.52254676818848 14.57312202453613 22.08432769775391 14.57312202453613 21.63710975646973 C 14.57312202453613 21.45826721191406 14.59529685974121 21.2793025970459 14.64237976074219 21.08158874511719 L 14.64061164855957 21.07159042358398 L 14.66835117340088 20.96566009521484 C 14.67296695709229 20.94803428649902 15.01476097106934 19.64114761352539 15.3253173828125 18.34415245056152 L 14.70128440856934 18.80127143859863 L 13.46567535400391 21.57174110412598 C 13.27129077911377 22.20645523071289 12.68194770812988 22.64624977111816 12.01828193664551 22.64624977111816 C 11.18110179901123 22.64624977111816 10.50000190734863 21.96514892578125 10.50000190734863 21.12796974182129 C 10.50000190734863 20.86429023742676 10.57100772857666 20.60343360900879 10.70568752288818 20.37094497680664 L 12.1358118057251 16.99716949462891 L 12.16049194335938 16.9389591217041 L 12.16848087310791 16.92850494384766 C 12.26397037506104 16.72173309326172 12.4064884185791 16.53838348388672 12.58561038970947 16.39185333251953 L 12.59221172332764 16.38327026367188 L 12.64445114135742 16.3432502746582 L 15.67435169219971 14.02258014678955 C 16.11492156982422 13.6855297088623 16.66256141662598 13.5 17.21661186218262 13.5 L 18.36930084228516 13.5 L 18.45069122314453 13.5 L 18.45402717590332 13.5011043548584 C 19.67941665649414 13.5389518737793 20.66453170776367 14.54758453369141 20.66453170776367 15.78199005126953 C 20.66453170776367 15.92939376831055 20.64708518981934 16.08099365234375 20.61145401000977 16.24151420593262 L 20.61919212341309 16.2601203918457 L 20.57370185852051 16.42386054992676 L 19.1834545135498 21.53650283813477 L 21.44574165344238 24.57185935974121 L 21.50572204589844 24.65233993530273 L 21.52999114990234 24.74971961975098 L 22.53986930847168 28.80078315734863 C 22.64689064025879 29.03544616699219 22.70110130310059 29.28007698059082 22.70110130310059 29.52878952026367 C 22.70110130310059 30.50634002685547 21.90580177307129 31.30163955688477 20.92825126647949 31.30163955688477 Z"/>
    <path class="cls-3" d="M 20.92825126647949 30.80163955688477 C 21.63137245178223 30.80163955688477 22.20110130310059 30.23191070556641 22.20110130310059 29.52878952026367 C 22.20110130310059 29.32716941833496 22.15019226074219 29.1392993927002 22.06669235229492 28.96974945068359 L 21.04484176635742 24.87065887451172 L 18.63711166381836 21.64015960693359 L 20.09122085571289 16.29265975952148 C 20.09122085571289 16.29265975952148 20.0876522064209 16.28400039672852 20.08562088012695 16.2794303894043 C 20.1319522857666 16.12056922912598 20.16453170776367 15.95560932159424 20.16453170776367 15.78199005126953 C 20.16453170776367 14.79782962799072 19.3667106628418 14 18.38254165649414 14 C 18.37949180603027 14 18.3769416809082 14.00101947784424 18.37388229370117 14.00101947784424 C 18.37235069274902 14.00101947784424 18.3708324432373 14 18.36930084228516 14 L 17.21661186218262 14 C 16.76907157897949 14 16.33376121520996 14.14764976501465 15.97838115692139 14.41952991485596 L 12.94848155975342 16.74020004272461 L 12.94339179992676 16.7468204498291 C 12.79319190979004 16.85780906677246 12.67354202270508 17.00749969482422 12.6027717590332 17.18366050720215 L 12.59616184234619 17.19231033325195 L 11.15274143218994 20.59745025634766 C 11.05753135681152 20.75222969055176 11.00000190734863 20.93297004699707 11.00000190734863 21.12796974182129 C 11.00000190734863 21.6905689239502 11.45568180084229 22.14624977111816 12.01828193664551 22.14624977111816 C 12.48618125915527 22.14624977111816 12.87618160247803 21.82905006408691 12.99532127380371 21.39883041381836 L 14.29872131347656 18.47636032104492 L 16.11279106140137 17.14751052856445 C 15.77778148651123 18.70293045043945 15.1520414352417 21.09232902526855 15.1520414352417 21.09232902526855 L 15.15357112884521 21.10097885131836 C 15.10622119903564 21.27306938171387 15.07312202453613 21.45025062561035 15.07312202453613 21.63710975646973 C 15.07312202453613 22.04392051696777 15.19532203674316 22.42066955566406 15.40101146697998 22.73888969421387 L 15.40152168273926 22.74295997619629 L 15.40457153320312 22.74601936340332 C 15.58888149261475 23.02910041809082 15.84447193145752 23.25668907165527 16.14181137084961 23.41909980773926 L 18.69617080688477 25.74943923950195 L 19.66761207580566 29.64945983886719 C 19.68085098266602 29.78795051574707 19.71140098571777 29.92082977294922 19.76588249206543 30.04302024841309 L 19.77250099182129 30.07000923156738 L 19.77860069274902 30.06694984436035 C 19.98175239562988 30.49971961975098 20.4180908203125 30.80163955688477 20.92825126647949 30.80163955688477 M 20.92825126647949 31.80163955688477 C 20.1054573059082 31.80163955688477 19.34299278259277 31.34680366516113 18.94447898864746 30.63071060180664 C 18.8898754119873 30.55008316040039 18.84687423706055 30.46123123168945 18.81749534606934 30.36660385131836 C 18.75165557861328 30.19914436340332 18.70606422424316 30.01854133605957 18.68147659301758 29.82778930664062 L 17.79888534545898 26.28446960449219 L 15.54827785491943 24.23124122619629 C 15.156081199646 23.99535751342773 14.8228120803833 23.67900848388672 14.57826995849609 23.30951499938965 C 14.56263256072998 23.28669357299805 14.54793643951416 23.26325988769531 14.53421115875244 23.23926162719727 C 14.23240947723389 22.75530242919922 14.07312202453613 22.20243644714355 14.07312202453613 21.63710975646973 C 14.07312202453613 21.56418991088867 14.07623386383057 21.49069023132324 14.08251094818115 21.41623497009277 L 13.93389701843262 21.74945449829102 C 13.66591453552246 22.5761661529541 12.89041614532471 23.14624977111816 12.01828193664551 23.14624977111816 C 10.9054012298584 23.14624977111816 10.00000190734863 22.2408504486084 10.00000190734863 21.12796974182129 C 10.00000190734863 20.78707885742188 10.08846759796143 20.4505443572998 10.25660228729248 20.14922904968262 L 11.675461769104 16.80203056335449 C 11.68586444854736 16.77748870849609 11.69723606109619 16.75339508056641 11.70954322814941 16.72980308532715 C 11.83983039855957 16.44310569763184 12.03723049163818 16.19016456604004 12.28626823425293 15.99088764190674 C 12.30377769470215 15.97541332244873 12.32183933258057 15.96054267883301 12.34042167663574 15.94631004333496 L 15.37032127380371 13.62563991546631 C 15.89783191680908 13.22206974029541 16.55337142944336 13 17.21661186218262 13 L 18.36930084228516 13 C 18.37154579162598 13 18.37378311157227 13.00000858306885 18.37602806091309 13.00002384185791 C 18.37820434570312 13.00000858306885 18.38037490844727 13 18.38254165649414 13 C 19.91653251647949 13 21.16453170776367 14.2480001449585 21.16453170776367 15.78199005126953 C 21.16453170776367 15.98773765563965 21.13793563842773 16.19723701477051 21.08347511291504 16.41875267028809 C 21.07754516601562 16.46443557739258 21.06844520568848 16.50995445251465 21.05618095397949 16.5550594329834 L 19.72979545593262 21.43285369873047 L 21.84664154052734 24.27306938171387 C 21.92582130432129 24.37929916381836 21.98310089111328 24.50020980834961 22.01515197753906 24.62878036499023 L 23.0145263671875 28.63771629333496 C 23.13839530944824 28.92439270019531 23.20110130310059 29.22358894348145 23.20110130310059 29.52878952026367 C 23.20110130310059 30.78203964233398 22.1815013885498 31.80163955688477 20.92825126647949 31.80163955688477 Z"/>
  </g>
</svg>
